<?xml version="1.0" standalone="no"?>
<!DOCTYPE svg PUBLIC "-//W3C//DTD SVG 20010904//EN"
 "http://www.w3.org/TR/2001/REC-SVG-20010904/DTD/svg10.dtd">
<svg version="1.0" xmlns="http://www.w3.org/2000/svg"
 width="545.000000pt" height="137.000000pt" viewBox="0 0 545.000000 137.000000"
 preserveAspectRatio="xMidYMid meet">

<g transform="translate(0.000000,137.000000) scale(0.100000,-0.100000)"
fill="#000000" stroke="none">
<path d="M0 685 l0 -685 2725 0 2725 0 0 685 0 685 -2725 0 -2725 0 0 -685z
m5239 589 l31 -6 0 -122 c0 -66 -4 -127 -8 -134 -6 -9 -21 -10 -62 -2 -129 24
-388 7 -540 -37 -186 -53 -366 -181 -459 -328 l-31 -49 0 141 c0 138 0 140 29
179 122 167 364 302 626 348 82 15 357 21 414 10z m-4042 -173 c51 -26 105
-80 129 -129 10 -20 20 -67 22 -103 13 -212 -213 -354 -401 -251 -142 77 -182
276 -82 408 72 95 226 130 332 75z m393 -156 c3 -99 9 -188 14 -198 5 -10 21
-24 37 -32 74 -39 141 1 154 92 4 29 5 108 3 177 -2 83 1 129 8 136 6 6 33 10
60 8 l49 -3 3 -180 c3 -209 -5 -252 -58 -305 -102 -102 -314 -72 -371 54 -16
35 -19 67 -19 232 0 105 3 194 7 198 4 4 30 6 58 4 l50 -3 5 -180z m578 -32
l2 -213 115 0 115 0 0 -55 0 -55 -175 0 -175 0 0 263 c0 145 3 267 7 271 4 4
30 6 58 4 l50 -3 3 -212z m-1500 -55 l-3 -263 -50 0 -50 0 -5 123 c-3 70 -9
123 -15 123 -5 1 -28 -42 -50 -94 -23 -53 -43 -98 -46 -101 -3 -3 -4 41 -3 97
1 107 -1 96 95 355 8 19 15 22 69 22 l60 0 -2 -262z m2122 258 c0 -2 41 -117
90 -255 50 -139 90 -257 90 -262 0 -6 -24 -9 -57 -7 -55 3 -57 4 -68 38 l-12
35 -101 3 -101 3 -12 -41 -12 -40 -59 0 c-41 0 -58 4 -58 13 0 8 27 87 61 178
33 90 75 203 92 252 l32 87 57 0 c32 0 58 -2 58 -4z m402 -38 c16 -33 22 -62
23 -120 0 -43 -2 -78 -5 -78 -7 0 -137 201 -147 225 -4 12 6 15 51 15 55 0 56
0 78 -42z m1888 -253 c18 -11 11 -146 -9 -185 l-19 -34 -178 -1 c-167 -1 -185
-3 -259 -28 -98 -32 -160 -72 -223 -142 l-47 -53 1 108 c1 102 3 112 27 144
72 94 241 174 414 196 72 9 276 6 293 -5z m-171 -371 c29 -6 31 -9 31 -53 0
-25 -4 -50 -8 -56 -4 -6 -60 -10 -132 -10 -145 0 -203 -13 -266 -62 l-44 -33
0 48 c0 27 7 57 15 70 22 30 90 69 155 86 57 15 194 21 249 10z m-1854 -135
c-313 -8 -1934 -8 -2275 0 -146 4 360 7 1125 7 765 0 1282 -3 1150 -7z m1198
-178 c18 -18 50 -46 71 -62 49 -36 34 -38 -19 -3 -75 50 -135 115 -135 148 l0
29 26 -39 c14 -21 40 -54 57 -73z m-2602 87 c1 -7 1 -38 1 -68 -1 -30 4 -60
10 -67 8 -10 4 -13 -16 -13 -26 0 -26 0 -26 80 0 64 3 80 15 80 8 0 16 -6 16
-12z m-1371 -2 c0 -3 -4 -8 -10 -11 -5 -3 -10 -1 -10 4 0 6 5 11 10 11 6 0 10
-2 10 -4z m500 0 c0 -3 -4 -8 -10 -11 -5 -3 -10 -1 -10 4 0 6 5 11 10 11 6 0
10 -2 10 -4z m1697 -22 c-9 -9 -28 6 -21 18 4 6 10 6 17 -1 6 -6 8 -13 4 -17z
m363 12 c0 -3 -4 -8 -10 -11 -5 -3 -10 -1 -10 4 0 6 5 11 10 11 6 0 10 -2 10
-4z m90 -6 c0 -5 -4 -10 -10 -10 -5 0 -10 5 -10 10 0 6 5 10 10 10 6 0 10 -4
10 -10z m-540 -30 c0 -5 8 -11 18 -11 16 -1 16 -2 0 -6 -13 -3 -18 -14 -18
-38 0 -24 5 -35 18 -38 9 -3 2 -5 -15 -6 -32 -1 -33 0 -33 39 0 25 -5 40 -12
40 -8 0 -5 7 6 15 23 17 36 19 36 5z m-1280 -35 c0 -10 -10 -15 -30 -15 -38 0
-40 -25 -2 -38 l27 -10 -25 -1 c-50 -2 -69 54 -28 83 24 17 58 6 58 -19z m118
23 c5 -7 12 -30 14 -50 3 -29 0 -38 -12 -38 -11 0 -15 10 -15 37 0 32 -4 39
-24 41 -22 3 -23 1 -19 -37 3 -32 0 -41 -12 -41 -11 0 -15 11 -15 42 0 40 2
43 30 49 17 4 33 7 36 8 4 0 11 -5 17 -11z m127 3 c3 -5 -7 -11 -22 -13 -38
-4 -39 -47 -3 -65 l25 -13 -25 0 c-32 0 -50 17 -50 46 0 35 59 70 75 45z m109
-7 c20 -20 12 -34 -20 -34 -33 0 -31 -26 4 -38 l27 -10 -30 -1 c-17 -1 -36 4
-43 11 -19 19 -14 55 10 72 28 20 33 20 52 0z m326 -37 c5 -38 3 -47 -10 -47
-11 0 -15 10 -15 37 0 29 -4 38 -19 41 -16 3 -18 -1 -14 -37 3 -36 1 -41 -17
-41 -17 0 -20 6 -20 42 0 40 2 43 30 49 53 11 60 7 65 -44z m140 1 c5 -40 3
-48 -11 -48 -12 0 -16 9 -15 37 1 29 -3 38 -18 41 -16 3 -18 -1 -14 -37 3 -36
1 -41 -17 -41 -17 0 -20 6 -20 42 0 24 3 45 7 48 3 3 23 5 45 5 38 0 38 0 43
-47z m124 36 c24 -24 20 -61 -9 -80 -23 -15 -27 -15 -50 0 -42 28 -24 96 25
96 10 0 26 -7 34 -16z m84 -9 c7 -37 22 -40 28 -6 4 17 11 30 16 29 12 -4 12
-4 -8 -55 -10 -24 -21 -43 -26 -43 -7 0 -48 82 -48 97 0 15 35 -5 38 -22z
m156 19 c11 -4 16 -19 16 -44 0 -21 6 -41 13 -43 6 -3 -12 -6 -40 -6 -46 -1
-53 1 -53 19 0 13 9 22 25 26 31 8 33 34 3 34 -19 0 -20 2 -8 10 18 11 23 12
44 4z m308 -11 c36 -32 17 -83 -32 -83 -48 0 -67 45 -33 82 20 22 41 23 65 1z
m134 5 c4 -6 10 -29 14 -50 6 -33 5 -38 -11 -38 -12 0 -16 5 -13 15 11 28 -5
65 -27 65 -19 0 -21 -5 -17 -40 3 -31 0 -40 -12 -40 -11 0 -15 11 -15 42 0 45
-2 44 67 57 4 0 10 -4 14 -11z m429 2 c17 -7 17 -9 3 -9 -14 -1 -18 -10 -18
-35 0 -19 6 -37 13 -39 6 -3 2 -6 -10 -6 -20 -1 -23 4 -23 33 0 19 -3 41 -6
50 -7 18 9 20 41 6z m-2313 -45 c2 -26 -1 -45 -7 -45 -5 0 -10 20 -10 45 0 25
3 45 6 45 4 0 9 -20 11 -45z m123 15 c-18 -35 -49 -40 -65 -10 -7 14 -7 20 0
20 5 0 10 -7 10 -15 0 -9 9 -15 21 -15 17 0 20 5 17 25 -4 20 -1 25 14 25 17
0 18 -2 3 -30z m1507 -15 c2 -36 0 -45 -12 -45 -12 0 -15 8 -12 36 3 24 0 39
-9 45 -11 6 -9 9 7 9 19 0 23 -7 26 -45z m453 0 c0 -33 -4 -45 -15 -45 -11 0
-15 12 -15 45 0 33 4 45 15 45 11 0 15 -12 15 -45z m137 0 c2 -32 -1 -45 -10
-45 -9 0 -11 7 -7 20 10 33 -4 62 -28 58 -18 -2 -22 -9 -21 -40 1 -22 -3 -38
-10 -38 -6 0 -11 19 -11 45 l0 45 41 0 42 0 4 -45z m213 35 c3 -6 -1 -7 -9 -4
-18 7 -21 14 -7 14 6 0 13 -4 16 -10z m1120 -60 c50 -54 38 -52 -22 4 -18 16
-33 37 -33 45 0 8 1 12 3 10 1 -2 25 -29 52 -59z m-1169 23 c0 -9 10 -23 24
-30 22 -11 23 -13 5 -13 -12 0 -26 5 -33 12 -14 14 -16 48 -3 48 5 0 8 -8 7
-17z m47 10 c-7 -2 -19 -2 -25 0 -7 3 -2 5 12 5 14 0 19 -2 13 -5z m-1743 -47
c0 -8 -4 -18 -10 -21 -5 -3 -10 -4 -10 -1 0 2 -3 11 -6 20 -4 11 -1 16 10 16
9 0 16 -6 16 -14z m-552 -13 c2 -9 -6 -11 -30 -7 -50 10 -60 26 -14 22 22 -2
41 -9 44 -15z m2422 9 c0 -4 -16 -6 -35 -4 -19 2 -35 6 -35 8 0 2 16 4 35 4
19 0 35 -4 35 -8z"/>
<path d="M1005 991 c-41 -25 -60 -49 -75 -94 -41 -128 112 -248 220 -174 75
51 98 124 61 199 -37 78 -138 112 -206 69z"/>
<path d="M2701 878 c-13 -40 -26 -79 -28 -85 -4 -10 11 -13 56 -13 34 0 61 3
61 7 0 18 -52 163 -59 163 -4 0 -18 -33 -30 -72z"/>
<path d="M1045 150 c-4 -6 5 -10 19 -10 14 0 26 5 26 10 0 6 -9 10 -19 10 -11
0 -23 -4 -26 -10z"/>
<path d="M1410 150 c0 -5 12 -10 26 -10 14 0 23 4 19 10 -3 6 -15 10 -26 10
-10 0 -19 -4 -19 -10z"/>
<path d="M1997 148 c-7 -20 11 -58 27 -58 19 0 25 20 15 48 -9 24 -34 30 -42
10z"/>
<path d="M2255 111 c-6 -11 9 -23 19 -14 9 9 7 23 -3 23 -6 0 -12 -4 -16 -9z"/>
<path d="M2544 146 c-8 -20 13 -56 32 -56 20 0 28 24 14 49 -12 24 -38 28 -46
7z"/>
</g>
</svg>
