<?xml version="1.0" standalone="no"?>
<!DOCTYPE svg PUBLIC "-//W3C//DTD SVG 20010904//EN"
 "http://www.w3.org/TR/2001/REC-SVG-20010904/DTD/svg10.dtd">
<svg version="1.0" xmlns="http://www.w3.org/2000/svg"
 width="1363.000000pt" height="455.000000pt" viewBox="0 0 1363.000000 455.000000"
 preserveAspectRatio="xMidYMid meet">

<g transform="translate(0.000000,455.000000) scale(0.100000,-0.100000)"
fill="#000000" stroke="none">
<path d="M0 2275 l0 -2275 6815 0 6815 0 0 2275 0 2275 -6815 0 -6815 0 0
-2275z m12673 1244 c26 -5 67 -13 92 -17 53 -10 64 -18 37 -26 -19 -6 -20 -16
-19 -229 0 -150 4 -224 11 -229 8 -5 7 -8 -1 -8 -8 0 -13 -13 -13 -30 0 -16
-4 -30 -10 -30 -5 0 -10 -7 -10 -15 0 -18 -15 -18 -150 0 -214 29 -675 17
-925 -25 -145 -24 -453 -119 -489 -152 -6 -4 -16 -8 -23 -8 -8 0 -33 -9 -55
-20 -23 -11 -47 -20 -53 -20 -7 0 -32 -16 -56 -35 -24 -19 -47 -35 -52 -35 -8
0 -47 -25 -144 -92 -85 -59 -274 -245 -325 -321 -23 -34 -45 -64 -49 -67 -4
-3 -19 -29 -34 -58 -14 -28 -30 -52 -36 -52 -5 0 -9 -7 -9 -15 0 -8 -5 -15
-11 -15 -7 0 -8 7 -4 18 4 9 7 145 6 302 -2 320 -5 307 75 410 75 97 212 228
305 292 22 14 55 40 74 57 20 17 41 31 47 31 6 0 33 16 59 35 59 42 278 151
369 184 36 13 85 32 110 43 49 23 130 43 305 78 33 7 76 17 95 22 93 26 221
35 520 36 173 0 336 -3 363 -9z m-9033 -349 c125 -38 156 -55 271 -156 174
-151 223 -460 113 -703 -43 -94 -179 -227 -276 -269 -120 -52 -229 -69 -344
-53 -47 7 -95 16 -107 20 -89 34 -119 50 -172 88 -227 165 -304 480 -185 759
53 123 197 253 332 299 152 51 238 55 368 15z m961 10 c18 -10 19 -25 19 -357
0 -417 5 -459 63 -515 53 -51 95 -68 169 -68 64 0 83 7 141 54 71 56 71 56 75
486 3 342 5 386 19 398 21 15 216 17 244 2 18 -10 19 -25 19 -408 -1 -449 -5
-483 -65 -581 -92 -149 -220 -210 -435 -210 -221 0 -358 68 -441 217 -62 114
-62 110 -66 553 l-5 407 23 16 c27 19 207 23 240 6z m1292 -2 c15 -12 17 -55
19 -473 l3 -460 245 -3 c190 -2 247 -5 255 -16 6 -7 8 -55 5 -117 l-5 -104
-385 0 -385 0 -3 580 c-2 536 -1 581 15 593 11 8 53 12 118 12 65 0 107 -4
118 -12z m1369 -10 c18 -15 54 -105 110 -273 22 -66 48 -138 58 -160 9 -22 27
-71 40 -110 12 -38 29 -85 38 -103 8 -18 36 -95 62 -170 26 -75 62 -178 80
-229 18 -51 30 -99 27 -107 -5 -13 -26 -16 -112 -16 -59 0 -115 5 -125 10 -12
7 -28 37 -41 83 -12 39 -29 78 -38 85 -12 10 -61 13 -195 11 -98 -1 -191 -5
-205 -8 -22 -6 -31 -22 -58 -92 l-31 -84 -123 -3 c-69 -1 -127 2 -132 7 -9 9
1 46 70 246 13 38 28 74 32 80 5 5 21 47 35 93 14 46 32 95 40 110 7 15 33 83
56 152 23 69 53 150 65 180 13 30 39 105 59 165 21 63 46 117 58 128 16 14 39
17 117 17 63 0 103 -4 113 -12z m-4694 -580 l2 -578 -120 0 -120 0 0 263 c0
203 -3 267 -13 281 -25 34 -50 5 -86 -101 -19 -54 -51 -132 -72 -173 -20 -41
-43 -94 -51 -117 -12 -40 -34 -61 -47 -47 -3 4 0 9 7 11 6 3 12 11 12 18 0 7
-6 16 -12 18 -8 3 -6 6 5 6 21 1 23 31 2 31 -8 0 -15 5 -15 10 0 6 6 10 14 10
8 0 16 6 19 14 8 21 -4 56 -19 56 -8 0 -14 5 -14 10 0 6 7 10 15 10 8 0 15 5
15 10 0 6 -7 10 -15 10 -8 0 -15 5 -15 10 0 6 6 10 14 10 8 0 16 7 20 15 4 10
-1 15 -17 16 -21 1 -21 1 -2 7 15 5 20 16 21 45 0 35 -2 38 -23 34 -15 -3 -22
0 -20 7 2 6 14 11 27 10 20 -1 21 0 6 11 -20 15 -20 29 -2 44 8 6 16 26 19 44
3 18 7 39 9 47 25 86 32 110 48 145 10 22 40 103 65 179 48 144 70 196 89 209
6 4 65 6 131 5 l120 -3 3 -577z m5565 564 c22 -19 79 -143 73 -159 -3 -8 -2
-11 4 -8 5 3 14 -4 20 -15 9 -16 8 -20 -5 -20 -8 0 -15 -4 -15 -10 0 -5 7 -10
15 -10 8 0 15 -4 15 -10 0 -5 -7 -10 -15 -10 -21 0 -19 -30 3 -31 16 -1 16 -2
0 -6 -22 -5 -24 -33 -3 -33 8 0 15 -4 15 -10 0 -5 -7 -10 -15 -10 -21 0 -19
-30 3 -31 16 -1 16 -2 0 -6 -22 -5 -24 -33 -3 -33 8 0 15 -4 15 -10 0 -5 -7
-10 -15 -10 -8 0 -15 -4 -15 -10 0 -5 7 -10 15 -10 23 0 18 -17 -7 -24 l-23
-7 23 -11 c27 -14 29 -28 2 -28 -11 0 -27 12 -36 28 -10 15 -29 44 -43 65 -39
57 -58 88 -82 131 -11 21 -30 48 -41 60 -11 12 -28 37 -38 56 -10 19 -39 66
-64 104 -25 38 -43 73 -39 79 8 14 238 4 256 -11z m112 -532 c3 -5 -1 -10 -9
-10 -9 0 -16 5 -16 10 0 6 4 10 9 10 6 0 13 -4 16 -10z m4040 -91 l100 -11 -3
-162 c-2 -110 -7 -171 -17 -191 -7 -16 -21 -50 -31 -75 -27 -71 -29 -72 -108
-66 -173 14 -524 18 -606 7 -153 -21 -252 -42 -305 -66 -16 -7 -61 -25 -100
-40 -161 -62 -321 -180 -410 -305 -16 -23 -43 -56 -58 -74 -26 -29 -28 -29
-21 -7 3 14 6 123 6 244 l-1 219 39 56 c42 61 111 131 175 178 21 16 47 37 57
46 26 26 232 126 318 155 41 14 89 31 105 38 143 60 555 86 860 54z m-10195
-99 c0 -5 -7 -10 -15 -10 -8 0 -15 5 -15 10 0 6 7 10 15 10 8 0 15 -4 15 -10z
m0 -180 c0 -5 -7 -10 -15 -10 -8 0 -15 5 -15 10 0 6 7 10 15 10 8 0 15 -4 15
-10z m-45 -229 c-3 -6 -32 -10 -63 -10 l-57 2 52 6 c28 4 55 10 59 14 10 10
17 1 9 -12z m6313 -8 c-10 -2 -26 -2 -35 0 -10 3 -2 5 17 5 19 0 27 -2 18 -5z
m3607 -314 c22 -6 53 -13 69 -17 l29 -7 -2 -75 c-3 -122 -31 -191 -70 -174 -9
3 -97 9 -196 11 -172 4 -262 -3 -435 -35 -62 -11 -182 -77 -246 -135 -29 -26
-55 -43 -58 -38 -4 5 -3 12 1 14 5 3 6 40 3 84 -3 43 -3 89 -2 103 5 30 117
141 167 164 106 49 210 85 290 101 75 16 396 18 450 4z m-3774 -286 l274 -8
-245 -5 c-460 -10 -1643 -15 -3315 -14 -1702 2 -2958 14 -2560 24 320 9 5544
11 5846 3z m2169 -188 c0 -7 6 -18 13 -22 7 -4 17 -19 24 -34 36 -82 243 -289
345 -344 19 -10 24 -25 9 -25 -14 0 -50 21 -136 79 -142 96 -295 251 -274 278
7 7 9 27 5 48 -4 22 -3 35 4 35 5 0 10 -7 10 -15z m-5609 -7 c0 -2 3 -75 5
-163 4 -105 10 -163 17 -167 20 -13 -14 -29 -53 -26 l-35 3 -5 95 c-3 52 -4
132 -2 178 l3 82 35 0 c19 0 34 -1 35 -2z m-3049 -175 c-2 -110 0 -148 10
-154 18 -11 -16 -23 -39 -14 -17 6 -17 7 0 19 14 11 17 30 17 127 -1 84 -4
119 -15 133 -21 27 -19 36 8 36 22 0 22 0 19 -147z m940 121 c-3 -19 -7 -22
-13 -12 -13 20 -11 38 5 38 9 0 12 -8 8 -26z m170 -121 c-2 -110 0 -148 10
-154 18 -11 -16 -23 -39 -14 -17 6 -17 7 0 19 14 11 17 30 17 127 -1 84 -4
119 -15 133 -21 27 -19 36 8 36 22 0 22 0 19 -147z m3778 132 c16 -19 6 -45
-18 -45 -29 0 -48 26 -32 45 16 19 34 19 50 0z m1006 -30 c-3 -9 -14 -15 -23
-13 -22 4 -30 38 -11 49 18 11 43 -15 34 -36z m-4626 9 c0 -8 -7 -14 -15 -14
-15 0 -21 21 -9 33 10 9 24 -2 24 -19z m4410 -132 c0 -102 4 -152 12 -160 9
-9 6 -12 -15 -12 -28 0 -34 9 -16 27 12 12 8 234 -5 271 -7 17 -5 22 8 22 14
0 16 -18 16 -148z m-993 74 c4 -8 21 -16 37 -18 16 -1 31 -9 34 -15 4 -13 -3
-17 -51 -27 -27 -6 -28 -8 -25 -68 3 -61 4 -63 36 -72 17 -5 32 -13 32 -17 0
-14 -70 -22 -96 -10 -22 10 -24 16 -24 85 0 65 -3 77 -20 86 -28 15 -25 25 13
48 39 25 54 26 64 8z m1687 -11 c3 -9 18 -15 34 -15 44 0 47 -13 5 -25 -37
-10 -38 -12 -41 -60 -5 -73 3 -95 35 -95 19 0 24 -3 16 -11 -6 -6 -26 -9 -44
-7 l-34 3 -3 82 c-2 70 -5 83 -22 88 -23 7 -17 29 13 43 30 15 34 14 41 -3z
m-3977 -17 c22 -18 4 -28 -46 -26 -55 3 -81 -13 -81 -48 0 -53 35 -91 95 -104
30 -6 30 -6 7 -19 -58 -31 -142 22 -142 91 0 89 106 157 167 106z m246 -9 c23
-28 22 -66 -3 -79 -11 -6 -39 -9 -62 -8 -37 3 -43 0 -46 -18 -4 -28 27 -53 79
-63 l44 -8 -27 -13 c-59 -28 -158 26 -158 87 0 35 39 101 71 119 31 18 79 10
102 -17z m697 13 c19 -16 24 -31 28 -98 2 -43 10 -82 16 -86 15 -11 -12 -28
-44 -28 -14 0 -32 5 -40 10 -13 9 -13 11 -1 19 11 7 14 26 12 68 -3 67 -14 85
-50 81 -26 -3 -26 -4 -27 -88 l0 -85 -33 -3 c-39 -4 -61 12 -43 30 18 18 15
128 -4 149 -14 16 -14 18 7 29 12 7 36 10 53 7 17 -2 40 -1 51 4 32 12 51 10
75 -9z m308 2 c20 -13 22 -24 22 -94 0 -65 3 -81 18 -89 15 -9 15 -12 2 -21
-20 -13 -61 -12 -80 1 -11 8 -12 12 -2 16 16 6 16 125 0 141 -18 18 -56 14
-68 -7 -16 -31 -13 -116 5 -131 20 -17 3 -30 -40 -30 -35 0 -68 18 -47 27 16
6 16 126 0 153 -17 27 -5 34 63 36 33 1 63 5 66 8 11 11 38 6 61 -10z m297
-14 c55 -52 57 -130 5 -174 -54 -45 -112 -41 -172 12 -24 20 -24 103 -2 138
38 56 122 68 169 24z m550 5 c22 -21 25 -33 25 -94 0 -56 3 -72 18 -80 30 -18
-3 -28 -94 -29 -90 0 -114 10 -114 49 0 19 67 69 94 69 19 0 39 27 33 44 -4
10 -23 16 -54 18 -54 3 -58 17 -10 35 50 18 76 15 102 -12z m645 10 c37 -19
60 -63 60 -112 -1 -105 -138 -141 -207 -55 -18 22 -16 93 3 121 20 28 72 61
97 61 10 0 31 -7 47 -15z m-3585 -11 c17 -1 35 -3 40 -3 6 -1 -2 -11 -16 -24
-15 -12 -30 -34 -33 -49 -9 -39 -21 -35 -22 8 0 26 -8 42 -30 61 l-29 26 30
-8 c17 -5 44 -10 60 -11z m269 3 c10 -7 18 -28 19 -47 l2 -35 -65 -5 c-51 -4
-66 -9 -68 -22 -5 -27 45 -68 84 -68 40 0 45 -16 8 -23 -67 -12 -134 36 -134
98 0 31 26 75 60 102 20 16 72 16 94 0z m286 3 c10 -6 17 -34 21 -87 3 -43 9
-86 13 -95 7 -15 3 -18 -26 -18 -42 0 -52 8 -33 27 9 9 15 34 15 62 0 59 -22
84 -72 79 l-33 -3 -3 -72 c-2 -46 1 -73 8 -73 5 0 10 -4 10 -10 0 -5 -18 -10
-40 -10 -38 0 -52 12 -30 25 17 10 12 126 -6 146 -15 17 -15 18 7 23 23 5 72
11 129 14 14 1 32 -3 40 -8z m2026 -30 c1 -37 19 -80 32 -80 14 0 41 66 32 80
-14 23 1 40 36 40 27 0 34 -4 34 -20 0 -11 -4 -20 -8 -20 -8 0 -65 -108 -77
-147 -16 -54 -62 -10 -104 97 -8 19 -21 43 -29 52 -21 25 -5 39 41 36 41 -3
42 -4 43 -38z m755 -51 c-3 -76 -1 -88 15 -98 17 -9 17 -12 4 -21 -20 -13 -61
-12 -80 1 -11 8 -12 12 -2 16 8 3 12 28 12 75 0 56 -4 74 -17 84 -17 12 -16
13 7 23 14 5 34 9 45 8 19 -2 20 -8 16 -88z m580 68 c7 -11 12 -51 11 -86 0
-36 4 -71 10 -79 15 -17 4 -25 -33 -24 -34 1 -52 12 -31 19 16 6 16 125 0 141
-15 15 -61 15 -76 0 -15 -15 -16 -120 0 -136 15 -15 9 -20 -28 -27 -31 -6 -70
12 -46 22 19 8 16 132 -4 155 -16 16 -15 18 5 26 12 4 58 8 101 9 72 2 81 0
91 -20z m712 4 c13 -10 17 -31 17 -87 0 -40 5 -76 10 -79 20 -12 10 -25 -19
-25 -31 0 -49 14 -31 25 14 9 12 108 -3 129 -9 13 -23 17 -52 14 l-40 -3 -3
-64 c-2 -36 2 -69 7 -74 20 -20 11 -27 -29 -27 -40 0 -53 13 -25 24 11 4 15
22 15 69 0 56 -3 67 -22 80 l-23 15 33 8 c52 14 147 11 165 -5z m471 9 c14 -5
26 -16 26 -24 0 -13 -4 -13 -32 -2 -55 23 -49 47 6 26z m-5385 -32 c-14 -26
-7 -140 9 -146 21 -7 13 -22 -12 -22 -27 0 -42 15 -26 25 17 11 12 131 -6 146
-14 12 -14 14 3 20 30 11 44 0 32 -23z m4626 -55 c0 -60 4 -88 13 -90 26 -10
10 -23 -28 -23 -38 0 -52 12 -30 25 16 10 12 131 -5 145 -20 17 -10 30 23 30
l28 0 -1 -87z m-4463 65 c-17 -17 -15 -49 4 -76 11 -16 25 -22 50 -22 21 0 33
-4 29 -10 -3 -5 -23 -10 -44 -10 -33 0 -40 5 -56 34 -16 29 -17 38 -5 65 7 17
17 31 23 31 7 0 7 -4 -1 -12z m5165 6 c-3 -3 -12 -4 -19 -1 -8 3 -5 6 6 6 11
1 17 -2 13 -5z m365 -9 c-16 -12 -26 -13 -42 -5 -29 16 -25 20 22 20 41 0 42
0 20 -15z m148 5 c0 -5 -7 -7 -15 -4 -8 4 -15 8 -15 10 0 2 7 4 15 4 8 0 15
-4 15 -10z m1970 -47 c26 -37 140 -154 175 -179 15 -11 16 -14 4 -14 -14 0
-63 31 -79 50 -3 3 -22 19 -43 34 -43 33 -107 116 -107 140 0 23 22 10 50 -31z
m-2505 -12 c3 -5 1 -12 -5 -16 -34 -21 19 -85 71 -85 16 0 29 -4 29 -10 0 -16
-73 -12 -98 6 -30 21 -52 74 -40 97 9 18 33 23 43 8z m110 -1 c-3 -5 -21 -10
-38 -10 -24 0 -28 3 -17 10 20 13 63 13 55 0z m195 -50 c0 -5 -9 -10 -19 -10
-11 0 -23 5 -26 10 -4 6 5 10 19 10 14 0 26 -4 26 -10z m-4089 -30 c24 -14 24
-31 -2 -64 -24 -31 -39 -34 -32 -7 3 10 -1 29 -7 41 -10 18 -9 24 1 31 18 11
17 11 40 -1z m2804 -10 c3 -5 1 -10 -4 -10 -6 0 -11 5 -11 10 0 6 2 10 4 10 3
0 8 -4 11 -10z m-4635 -16 c0 -2 -9 -4 -21 -4 -11 0 -18 4 -14 10 5 8 35 3 35
-6z m603 -5 c20 -11 23 -55 4 -62 -7 -3 -19 4 -25 14 -9 14 -24 19 -55 19 -39
0 -87 21 -87 38 0 10 141 2 163 -9z m5348 1 c42 0 49 -3 49 -20 0 -17 -3 -18
-26 -10 -14 6 -42 10 -63 10 -20 0 -46 7 -57 16 -18 15 -17 15 15 10 18 -3 55
-6 82 -6z m212 3 c-7 -2 -19 -2 -25 0 -7 3 -2 5 12 5 14 0 19 -2 13 -5z
m-5688 -101 c-9 -9 -35 8 -35 24 0 16 2 16 20 -1 11 -10 18 -20 15 -23z"/>
<path d="M3367 2917 c-54 -15 -144 -93 -186 -161 -36 -59 -36 -60 -36 -170 0
-104 2 -114 28 -159 33 -57 85 -117 100 -117 5 0 24 -11 42 -24 39 -30 95 -46
163 -46 201 0 371 204 334 401 -10 53 -50 137 -85 179 -27 32 -97 80 -139 95
-49 17 -164 18 -221 2z"/>
<path d="M7125 2754 c-8 -19 -33 -95 -56 -167 -23 -73 -46 -138 -51 -144 -17
-21 35 -33 145 -33 56 0 108 4 115 8 13 9 13 8 -86 295 -14 42 -32 77 -39 77
-7 0 -19 -16 -28 -36z"/>
<path d="M4243 1040 c-13 -5 -23 -16 -23 -25 0 -11 11 -15 44 -15 44 0 67 14
50 30 -16 14 -49 19 -71 10z"/>
<path d="M5524 1015 c-14 -55 18 -125 57 -125 48 0 66 76 28 124 -28 36 -76
36 -85 1z"/>
<path d="M6106 933 c-22 -12 -25 -17 -15 -29 6 -8 17 -14 24 -14 12 0 45 31
45 42 0 14 -28 15 -54 1z"/>
<path d="M6756 1037 c-16 -11 -18 -23 -14 -67 6 -59 24 -80 69 -80 20 0 30 7
39 29 28 69 -42 156 -94 118z"/>
<path d="M3422 1038 c-25 -25 -13 -38 37 -38 55 0 69 10 45 34 -18 19 -65 21
-82 4z"/>
</g>
</svg>
