<?xml version="1.0" standalone="no"?>
<!DOCTYPE svg PUBLIC "-//W3C//DTD SVG 20010904//EN"
 "http://www.w3.org/TR/2001/REC-SVG-20010904/DTD/svg10.dtd">
<svg version="1.0" xmlns="http://www.w3.org/2000/svg"
 width="188.000000pt" height="188.000000pt" viewBox="0 0 188.000000 188.000000"
 preserveAspectRatio="xMidYMid meet">

<g transform="translate(0.000000,188.000000) scale(0.100000,-0.100000)"
fill="#000000" stroke="none">
<path d="M0 940 l0 -940 940 0 940 0 0 940 0 940 -940 0 -940 0 0 -940z m1630
813 c47 -5 51 -7 30 -15 -14 -5 -20 -12 -15 -16 14 -9 15 -62 2 -62 -7 0 -7
-4 0 -11 8 -8 8 -20 3 -35 -6 -15 -6 -24 0 -24 9 0 4 -65 -7 -82 -2 -5 2 -8 9
-9 10 0 10 -2 -1 -6 -8 -3 -9 -8 -3 -12 14 -9 17 -31 8 -69 -7 -29 -11 -33
-29 -27 -67 21 -150 26 -317 22 -191 -5 -263 -17 -450 -77 -104 -33 -212 -91
-314 -170 -42 -33 -168 -167 -183 -195 -9 -16 -22 -35 -29 -43 -8 -7 -14 -19
-14 -25 0 -7 -9 -23 -19 -36 -19 -24 -19 -22 -17 175 2 233 -4 217 138 358 79
78 113 105 220 173 155 99 381 176 563 193 90 8 323 5 425 -7z m-253 -609 l59
-6 -4 -32 c-3 -17 -10 -37 -16 -45 -8 -11 -8 -13 0 -8 8 5 12 -9 13 -47 0 -29
1 -58 2 -62 2 -5 -3 -21 -9 -36 -7 -16 -16 -39 -22 -52 l-9 -25 -173 6 c-167
5 -317 -6 -342 -26 -6 -4 -24 -11 -41 -15 -31 -7 -136 -59 -163 -79 -41 -33
-152 -150 -152 -162 0 -7 -6 -17 -12 -23 -19 -16 -16 282 3 312 27 41 145 156
172 167 15 6 27 15 27 19 0 4 21 15 48 25 26 10 52 21 57 25 14 11 173 58 210
63 52 7 289 7 352 1z m-152 -523 c28 -6 30 -9 27 -46 -1 -22 -5 -56 -8 -76
l-5 -36 -142 1 c-203 1 -315 -29 -381 -103 -11 -11 -22 -21 -26 -21 -3 0 -7
30 -7 68 -1 67 -1 67 45 115 25 26 51 47 57 47 6 0 29 9 50 21 22 11 60 24 85
29 54 9 262 10 305 1z m-910 -340 c25 -44 98 -126 148 -164 71 -56 50 -57 -29
-1 -102 73 -180 163 -155 178 5 4 7 16 5 29 -4 21 -4 21 6 2 6 -11 17 -31 25
-44z m205 -76 c0 -7 24 -38 54 -69 29 -31 50 -56 46 -56 -11 0 -84 61 -104 88
-23 30 -29 63 -10 55 8 -3 14 -11 14 -18z"/>
</g>
</svg>
